<svg width="64" height="64" viewBox="0 0 64 64" fill="none" xmlns="http://www.w3.org/2000/svg">
        <!-- Neural network -->
        <!-- Input layer nodes -->
        <circle cx="10" cy="16" r="4" stroke="#F4622A" stroke-width="1.5" fill="rgba(244,98,42,0.1)"/>
        <circle cx="10" cy="32" r="4" stroke="#F4622A" stroke-width="1.5" fill="rgba(244,98,42,0.1)"/>
        <circle cx="10" cy="48" r="4" stroke="#F4622A" stroke-width="1.5" fill="rgba(244,98,42,0.1)"/>

        <!-- Hidden layer nodes -->
        <circle cx="32" cy="12" r="4" stroke="#F4622A" stroke-width="1.5" fill="rgba(244,98,42,0.2)"/>
        <circle cx="32" cy="26" r="4" stroke="#F4622A" stroke-width="1.5" fill="rgba(244,98,42,0.2)"/>
        <circle cx="32" cy="40" r="4" stroke="#F4622A" stroke-width="1.5" fill="rgba(244,98,42,0.2)"/>
        <circle cx="32" cy="54" r="4" stroke="#F4622A" stroke-width="1.5" fill="rgba(244,98,42,0.2)"/>

        <!-- Output layer node -->
        <circle cx="54" cy="32" r="5" stroke="#F4622A" stroke-width="1.8" fill="rgba(244,98,42,0.3)"/>
        <circle cx="54" cy="32" r="2" fill="#F4622A"/>

        <!-- Connections input → hidden -->
        <line x1="14" y1="16" x2="28" y2="12" stroke="#F4622A" stroke-width="0.8" opacity="0.5"/>
        <line x1="14" y1="16" x2="28" y2="26" stroke="#F4622A" stroke-width="0.8" opacity="0.3"/>
        <line x1="14" y1="32" x2="28" y2="12" stroke="#F4622A" stroke-width="0.8" opacity="0.25"/>
        <line x1="14" y1="32" x2="28" y2="26" stroke="#F4622A" stroke-width="0.8" opacity="0.5"/>
        <line x1="14" y1="32" x2="28" y2="40" stroke="#F4622A" stroke-width="0.8" opacity="0.5"/>
        <line x1="14" y1="32" x2="28" y2="54" stroke="#F4622A" stroke-width="0.8" opacity="0.25"/>
        <line x1="14" y1="48" x2="28" y2="40" stroke="#F4622A" stroke-width="0.8" opacity="0.3"/>
        <line x1="14" y1="48" x2="28" y2="54" stroke="#F4622A" stroke-width="0.8" opacity="0.5"/>

        <!-- Connections hidden → output -->
        <line x1="36" y1="12" x2="49" y2="32" stroke="#F4622A" stroke-width="0.8" opacity="0.4"/>
        <line x1="36" y1="26" x2="49" y2="32" stroke="#F4622A" stroke-width="0.8" opacity="0.6"/>
        <line x1="36" y1="40" x2="49" y2="32" stroke="#F4622A" stroke-width="0.8" opacity="0.6"/>
        <line x1="36" y1="54" x2="49" y2="32" stroke="#F4622A" stroke-width="0.8" opacity="0.4"/>
      </svg>